<?xml version="1.0" encoding="UTF-8" standalone="no"?>
<!DOCTYPE score-partwise PUBLIC "-//Recordare//DTD MusicXML 3.0 Partwise//EN" "http://www.musicxml.org/dtds/partwise.dtd">
<score-partwise version="3.0">
  <part-list>
    <score-part id="P1">
      <part-name>Music</part-name>
    </score-part>
  </part-list>
  <part id="P1">
    <measure number="1">
      <attributes>
        <divisions>1</divisions>
        <key>
          <fifths>0</fifths>
        </key>
        <time>
          <beats>4</beats>
          <beat-type>4</beat-type>
        </time>
        <clef>
          <sign>G</sign>
          <line>2</line>
        </clef>
      </attributes>
      <note>
        <rest/>
        <duration>1</duration>
        <type>quarter</type>
      </note>
      <note>
        <pitch>
          <step>D</step>
          <octave>4</octave>
        </pitch>
        <duration>1</duration>
        <type>quarter</type>
      </note>
      <note>
        <pitch>
          <step>D</step>
          <octave>4</octave>
        </pitch>
        <duration>1</duration>
        <type>quarter</type>
      </note>
      <note>
        <pitch>
          <step>E</step>
          <octave>4</octave>
        </pitch>
        <duration>1</duration>
        <type>quarter</type>
        <tie type="start"/>
        <notations>
          <tied type="start"/>
        </notations>
      </note>
    </measure>
    <measure number="2">
      <attributes>
      </attributes>
      <note>
        <pitch>
          <step>E</step>
          <octave>4</octave>
        </pitch>
        <duration>2</duration>
        <type>half</type>
        <tie type="stop"/>
        <notations>
          <tied type="stop"/>
        </notations>
      </note>
      <note>
        <pitch>
          <step>E</step>
          <octave>4</octave>
        </pitch>
        <duration>1</duration>
        <type>quarter</type>
      </note>
      <note>
        <pitch>
          <step>A</step>
          <octave>3</octave>
        </pitch>
        <duration>1</duration>
        <type>quarter</type>
      </note>
    </measure>
    <measure number="3">
      <attributes>
      </attributes>
      <note>
        <pitch>
          <step>E</step>
          <octave>3</octave>
        </pitch>
        <duration>0.5</duration>
        <type>eighth</type>
      </note>
      <note>
        <pitch>
          <step>E</step>
          <octave>3</octave>
        </pitch>
        <duration>0.5</duration>
        <type>eighth</type>
      </note>
      <note>
        <pitch>
          <step>G</step>
          <octave>3</octave>
        </pitch>
        <duration>2</duration>
        <type>half</type>
      </note>
      <note>
        <pitch>
          <step>G</step>
          <octave>3</octave>
        </pitch>
        <duration>1</duration>
        <type>quarter</type>
        <tie type="start"/>
        <notations>
          <tied type="start"/>
        </notations>
      </note>
    </measure>
    <measure number="4">
      <attributes>
      </attributes>
      <note>
        <pitch>
          <step>G</step>
          <octave>3</octave>
        </pitch>
        <duration>1</duration>
        <type>quarter</type>
        <tie type="stop"/>
        <notations>
          <tied type="stop"/>
        </notations>
      </note>
      <note>
        <pitch>
          <step>A</step>
          <octave>3</octave>
        </pitch>
        <duration>1.5</duration>
        <type>quarter</type>
        <dot/>
      </note>
      <note>
        <pitch>
          <step>C</step>
          <octave>4</octave>
        </pitch>
        <duration>1.5</duration>
        <type>quarter</type>
        <dot/>
        <tie type="start"/>
        <notations>
          <tied type="start"/>
        </notations>
      </note>
    </measure>
    <measure number="5">
      <attributes>
      </attributes>
      <note>
        <pitch>
          <step>C</step>
          <octave>4</octave>
        </pitch>
        <duration>0.5</duration>
        <type>eighth</type>
        <tie type="stop"/>
        <notations>
          <tied type="stop"/>
        </notations>
      </note>
      <note>
        <pitch>
          <step>C</step>
          <octave>4</octave>
        </pitch>
        <duration>2</duration>
        <type>half</type>
      </note>
      <note>
        <pitch>
          <step>D</step>
          <octave>4</octave>
        </pitch>
        <duration>1.5</duration>
        <type>quarter</type>
        <dot/>
      </note>
    </measure>
    <measure number="6">
      <attributes>
      </attributes>
      <note>
        <pitch>
          <step>D</step>
          <octave>4</octave>
        </pitch>
        <duration>0.5</duration>
        <type>eighth</type>
      </note>
      <note>
        <pitch>
          <step>D</step>
          <octave>4</octave>
        </pitch>
        <duration>0.5</duration>
        <type>eighth</type>
      </note>
      <note>
        <pitch>
          <step>D</step>
          <octave>4</octave>
        </pitch>
        <duration>0.5</duration>
        <type>eighth</type>
      </note>
      <note>
        <pitch>
          <step>D</step>
          <octave>4</octave>
        </pitch>
        <duration>0.5</duration>
        <type>eighth</type>
      </note>
      <note>
        <pitch>
          <step>D</step>
          <octave>4</octave>
        </pitch>
        <duration>0.5</duration>
        <type>eighth</type>
      </note>
      <note>
        <pitch>
          <step>A</step>
          <octave>3</octave>
        </pitch>
        <duration>0.5</duration>
        <type>eighth</type>
      </note>
      <note>
        <pitch>
          <step>A</step>
          <octave>3</octave>
        </pitch>
        <duration>0.5</duration>
        <type>eighth</type>
      </note>
      <note>
        <pitch>
          <step>A</step>
          <octave>3</octave>
        </pitch>
        <duration>0.5</duration>
        <type>eighth</type>
      </note>
    </measure>
    <measure number="7">
      <attributes>
      </attributes>
      <note>
        <pitch>
          <step>A</step>
          <octave>3</octave>
        </pitch>
        <duration>0.5</duration>
        <type>eighth</type>
      </note>
      <note>
        <pitch>
          <step>C</step>
          <octave>4</octave>
        </pitch>
        <duration>2</duration>
        <type>half</type>
      </note>
      <note>
        <pitch>
          <step>C</step>
          <octave>4</octave>
        </pitch>
        <duration>1.5</duration>
        <type>quarter</type>
        <dot/>
        <tie type="start"/>
        <notations>
          <tied type="start"/>
        </notations>
      </note>
    </measure>
    <measure number="8">
      <attributes>
      </attributes>
      <note>
        <pitch>
          <step>C</step>
          <octave>4</octave>
        </pitch>
        <duration>0.5</duration>
        <type>eighth</type>
        <tie type="stop"/>
        <notations>
          <tied type="stop"/>
        </notations>
      </note>
      <note>
        <pitch>
          <step>D</step>
          <octave>4</octave>
        </pitch>
        <duration>1.5</duration>
        <type>quarter</type>
        <dot/>
      </note>
      <note>
        <pitch>
          <step>F</step>
          <octave>4</octave>
        </pitch>
        <duration>2</duration>
        <type>half</type>
      </note>
    </measure>
    <measure number="9">
      <attributes>
      </attributes>
      <note>
        <pitch>
          <step>F</step>
          <octave>4</octave>
        </pitch>
        <duration>2</duration>
        <type>half</type>
      </note>
      <note>
        <pitch>
          <step>A</step>
          <octave>4</octave>
        </pitch>
        <duration>1.5</duration>
        <type>quarter</type>
        <dot/>
      </note>
      <note>
        <pitch>
          <step>A</step>
          <octave>4</octave>
        </pitch>
        <duration>0.5</duration>
        <type>eighth</type>
      </note>
    </measure>
    <measure number="10">
      <attributes>
      </attributes>
      <note>
        <rest/>
        <duration>0.5</duration>
        <type>eighth</type>
      </note>
      <note>
        <pitch>
          <step>A</step>
          <octave>4</octave>
        </pitch>
        <duration>1</duration>
        <type>quarter</type>
      </note>
      <note>
        <pitch>
          <step>A</step>
          <octave>4</octave>
        </pitch>
        <duration>1</duration>
        <type>quarter</type>
      </note>
      <note>
        <pitch>
          <step>F</step>
          <octave>4</octave>
        </pitch>
        <duration>1.5</duration>
        <type>quarter</type>
        <dot/>
      </note>
    </measure>
    <measure number="11">
      <attributes>
      </attributes>
      <note>
        <pitch>
          <step>F</step>
          <octave>4</octave>
        </pitch>
        <duration>0.5</duration>
        <type>eighth</type>
      </note>
      <note>
        <pitch>
          <step>B</step>
          <octave>3</octave>
        </pitch>
        <duration>2</duration>
        <type>half</type>
      </note>
      <note>
        <pitch>
          <step>A</step>
          <octave>3</octave>
        </pitch>
        <duration>1</duration>
        <type>quarter</type>
      </note>
      <note>
        <pitch>
          <step>D</step>
          <octave>4</octave>
        </pitch>
        <duration>0.5</duration>
        <type>eighth</type>
        <tie type="start"/>
        <notations>
          <tied type="start"/>
        </notations>
      </note>
    </measure>
    <measure number="12">
      <attributes>
      </attributes>
      <note>
        <pitch>
          <step>D</step>
          <octave>4</octave>
        </pitch>
        <duration>0.5</duration>
        <type>eighth</type>
        <tie type="stop"/>
        <notations>
          <tied type="stop"/>
        </notations>
      </note>
      <note>
        <pitch>
          <step>D</step>
          <octave>4</octave>
        </pitch>
        <duration>1</duration>
        <type>quarter</type>
      </note>
      <note>
        <pitch>
          <step>E</step>
          <octave>4</octave>
        </pitch>
        <duration>0.5</duration>
        <type>eighth</type>
      </note>
      <note>
        <pitch>
          <step>C</step>
          <octave>4</octave>
        </pitch>
        <duration>1.5</duration>
        <type>quarter</type>
        <dot/>
      </note>
      <note>
        <rest/>
        <duration>0.5</duration>
        <type>eighth</type>
      </note>
    </measure>
    <measure number="13">
      <attributes>
      </attributes>
      <note>
        <rest/>
        <duration>1.5</duration>
        <type>quarter</type>
        <dot/>
      </note>
      <note>
        <pitch>
          <step>D</step>
          <octave>4</octave>
        </pitch>
        <duration>1</duration>
        <type>quarter</type>
      </note>
      <note>
        <pitch>
          <step>D</step>
          <octave>4</octave>
        </pitch>
        <duration>1</duration>
        <type>quarter</type>
      </note>
      <note>
        <pitch>
          <step>C</step>
          <octave>4</octave>
        </pitch>
        <duration>0.5</duration>
        <type>eighth</type>
      </note>
    </measure>
    <measure number="14">
      <attributes>
      </attributes>
      <note>
        <pitch>
          <step>C</step>
          <octave>4</octave>
        </pitch>
        <duration>0.5</duration>
        <type>eighth</type>
      </note>
      <note>
        <pitch>
          <step>C</step>
          <octave>4</octave>
        </pitch>
        <duration>0.5</duration>
        <type>eighth</type>
      </note>
      <note>
        <pitch>
          <step>C</step>
          <octave>4</octave>
        </pitch>
        <duration>0.5</duration>
        <type>eighth</type>
      </note>
      <note>
        <pitch>
          <step>D</step>
          <octave>4</octave>
        </pitch>
        <duration>1</duration>
        <type>quarter</type>
      </note>
      <note>
        <pitch>
          <step>C</step>
          <octave>4</octave>
        </pitch>
        <duration>1.5</duration>
        <type>quarter</type>
        <dot/>
        <tie type="start"/>
        <notations>
          <tied type="start"/>
        </notations>
      </note>
    </measure>
    <measure number="15">
      <attributes>
      </attributes>
      <note>
        <pitch>
          <step>C</step>
          <octave>4</octave>
        </pitch>
        <duration>2</duration>
        <type>half</type>
        <tie type="stop"/>
        <tie type="start"/>
        <notations>
          <tied type="stop"/>
          <tied type="start"/>
        </notations>
      </note>
      <note>
        <pitch>
          <step>C</step>
          <octave>4</octave>
        </pitch>
        <duration>0.5</duration>
        <type>eighth</type>
        <tie type="stop"/>
        <notations>
          <tied type="stop"/>
        </notations>
      </note>
      <note>
        <rest/>
        <duration>1</duration>
        <type>quarter</type>
      </note>
      <note>
        <pitch>
          <step>G</step>
          <octave>3</octave>
        </pitch>
        <duration>0.5</duration>
        <type>eighth</type>
      </note>
    </measure>
    <measure number="16">
      <attributes>
      </attributes>
      <note>
        <pitch>
          <step>G</step>
          <octave>3</octave>
        </pitch>
        <duration>0.5</duration>
        <type>eighth</type>
      </note>
      <note>
        <pitch>
          <step>C</step>
          <octave>4</octave>
        </pitch>
        <duration>0.5</duration>
        <type>eighth</type>
      </note>
      <note>
        <pitch>
          <step>C</step>
          <octave>4</octave>
        </pitch>
        <duration>0.5</duration>
        <type>eighth</type>
      </note>
      <note>
        <pitch>
          <step>C</step>
          <octave>4</octave>
        </pitch>
        <duration>0.5</duration>
        <type>eighth</type>
      </note>
      <note>
        <pitch>
          <step>C</step>
          <octave>4</octave>
        </pitch>
        <duration>0.5</duration>
        <type>eighth</type>
      </note>
      <note>
        <pitch>
          <step>C</step>
          <octave>4</octave>
        </pitch>
        <duration>1.5</duration>
        <type>quarter</type>
        <dot/>
        <tie type="start"/>
        <notations>
          <tied type="start"/>
        </notations>
      </note>
    </measure>
    <measure number="17">
      <attributes>
      </attributes>
      <note>
        <pitch>
          <step>C</step>
          <octave>4</octave>
        </pitch>
        <duration>2</duration>
        <type>half</type>
        <tie type="stop"/>
        <tie type="start"/>
        <notations>
          <tied type="stop"/>
          <tied type="start"/>
        </notations>
      </note>
      <note>
        <pitch>
          <step>C</step>
          <octave>4</octave>
        </pitch>
        <duration>0.5</duration>
        <type>eighth</type>
        <tie type="stop"/>
        <notations>
          <tied type="stop"/>
        </notations>
      </note>
      <note>
        <pitch>
          <step>G</step>
          <octave>4</octave>
        </pitch>
        <duration>0.5</duration>
        <type>eighth</type>
      </note>
      <note>
        <pitch>
          <step>G</step>
          <octave>4</octave>
        </pitch>
        <duration>0.5</duration>
        <type>eighth</type>
      </note>
      <note>
        <pitch>
          <step>G</step>
          <octave>4</octave>
        </pitch>
        <duration>0.5</duration>
        <type>eighth</type>
      </note>
    </measure>
    <measure number="18">
      <attributes>
      </attributes>
      <note>
        <pitch>
          <step>G</step>
          <octave>4</octave>
        </pitch>
        <duration>0.5</duration>
        <type>eighth</type>
      </note>
      <barline location="left">
        <bar-style>heavy-light</bar-style>
        <repeat direction="forward" winged="none"/>
      </barline>
      <note>
        <pitch>
          <step>E</step>
          <octave>4</octave>
        </pitch>
        <duration>3</duration>
        <type>half</type>
        <dot/>
      </note>
      <note>
        <pitch>
          <step>E</step>
          <octave>4</octave>
        </pitch>
        <duration>0.5</duration>
        <type>eighth</type>
        <tie type="start"/>
        <notations>
          <tied type="start"/>
        </notations>
      </note>
    </measure>
    <measure number="19">
      <attributes>
      </attributes>
      <note>
        <pitch>
          <step>E</step>
          <octave>4</octave>
        </pitch>
        <duration>0.5</duration>
        <type>eighth</type>
        <tie type="stop"/>
        <notations>
          <tied type="stop"/>
        </notations>
      </note>
      <note>
        <rest/>
        <duration>1</duration>
        <type>quarter</type>
      </note>
      <note>
        <pitch>
          <step>B</step>
          <octave>4</octave>
        </pitch>
        <duration>0.5</duration>
        <type>eighth</type>
      </note>
      <note>
        <pitch>
          <step>F</step>
          <octave>4</octave>
        </pitch>
        <duration>0.25</duration>
        <type>16th</type>
      </note>
      <note>
        <pitch>
          <step>F</step>
          <octave>4</octave>
        </pitch>
        <duration>0.25</duration>
        <type>16th</type>
      </note>
      <note>
        <pitch>
          <step>A</step>
          <octave>4</octave>
        </pitch>
        <duration>1.5</duration>
        <type>quarter</type>
        <dot/>
        <tie type="start"/>
        <notations>
          <tied type="start"/>
        </notations>
      </note>
    </measure>
    <measure number="20">
      <attributes>
      </attributes>
      <note>
        <pitch>
          <step>A</step>
          <octave>4</octave>
        </pitch>
        <duration>0.5</duration>
        <type>eighth</type>
        <tie type="stop"/>
        <notations>
          <tied type="stop"/>
        </notations>
      </note>
      <note>
        <pitch>
          <step>A</step>
          <octave>4</octave>
        </pitch>
        <duration>2</duration>
        <type>half</type>
      </note>
      <note>
        <pitch>
          <step>G</step>
          <octave>4</octave>
        </pitch>
        <duration>1</duration>
        <type>quarter</type>
      </note>
      <note>
        <pitch>
          <step>G</step>
          <octave>4</octave>
        </pitch>
        <duration>0.5</duration>
        <type>eighth</type>
        <tie type="start"/>
        <notations>
          <tied type="start"/>
        </notations>
      </note>
    </measure>
    <measure number="21">
      <attributes>
      </attributes>
      <note>
        <pitch>
          <step>G</step>
          <octave>4</octave>
        </pitch>
        <duration>0.5</duration>
        <type>eighth</type>
        <tie type="stop"/>
        <notations>
          <tied type="stop"/>
        </notations>
      </note>
      <note>
        <pitch>
          <step>G</step>
          <octave>4</octave>
        </pitch>
        <duration>0.5</duration>
        <type>eighth</type>
      </note>
      <note>
        <pitch>
          <step>G</step>
          <octave>4</octave>
        </pitch>
        <duration>0.5</duration>
        <type>eighth</type>
      </note>
      <note>
        <pitch>
          <step>C</step>
          <octave>5</octave>
        </pitch>
        <duration>0.5</duration>
        <type>eighth</type>
      </note>
      <note>
        <pitch>
          <step>C</step>
          <octave>5</octave>
        </pitch>
        <duration>0.5</duration>
        <type>eighth</type>
      </note>
      <note>
        <pitch>
          <step>C</step>
          <octave>5</octave>
        </pitch>
        <duration>0.5</duration>
        <type>eighth</type>
      </note>
      <note>
        <pitch>
          <step>C</step>
          <octave>5</octave>
        </pitch>
        <duration>0.5</duration>
        <type>eighth</type>
      </note>
      <note>
        <pitch>
          <step>D</step>
          <octave>5</octave>
        </pitch>
        <duration>0.25</duration>
        <type>16th</type>
      </note>
      <note>
        <pitch>
          <step>D</step>
          <octave>5</octave>
        </pitch>
        <duration>0.25</duration>
        <type>16th</type>
      </note>
    </measure>
    <measure number="22">
      <attributes>
      </attributes>
      <note>
        <pitch>
          <step>A</step>
          <octave>4</octave>
        </pitch>
        <duration>1.5</duration>
        <type>quarter</type>
        <dot/>
      </note>
      <note>
        <pitch>
          <step>A</step>
          <octave>4</octave>
        </pitch>
        <duration>0.5</duration>
        <type>eighth</type>
      </note>
      <note>
        <pitch>
          <step>G</step>
          <octave>4</octave>
        </pitch>
        <duration>1.5</duration>
        <type>quarter</type>
        <dot/>
      </note>
      <note>
        <pitch>
          <step>G</step>
          <octave>4</octave>
        </pitch>
        <duration>0.5</duration>
        <type>eighth</type>
      </note>
    </measure>
    <measure number="23">
      <attributes>
      </attributes>
      <note>
        <pitch>
          <step>C</step>
          <octave>5</octave>
        </pitch>
        <duration>1.5</duration>
        <type>quarter</type>
        <dot/>
      </note>
      <note>
        <pitch>
          <step>F</step>
          <octave>5</octave>
        </pitch>
        <duration>1</duration>
        <type>quarter</type>
      </note>
      <note>
        <pitch>
          <step>F</step>
          <octave>5</octave>
        </pitch>
        <duration>1</duration>
        <type>quarter</type>
      </note>
      <note>
        <rest/>
        <duration>0.5</duration>
        <type>eighth</type>
      </note>
    </measure>
    <measure number="24">
      <attributes>
      </attributes>
      <note>
        <rest/>
        <duration>0.5</duration>
        <type>eighth</type>
      </note>
      <note>
        <pitch>
          <step>D</step>
          <octave>5</octave>
        </pitch>
        <duration>1.5</duration>
        <type>quarter</type>
        <dot/>
      </note>
      <note>
        <pitch>
          <step>G</step>
          <octave>5</octave>
        </pitch>
        <duration>2</duration>
        <type>half</type>
      </note>
    </measure>
    <measure number="25">
      <attributes>
      </attributes>
      <note>
        <pitch>
          <step>G</step>
          <octave>5</octave>
        </pitch>
        <duration>2</duration>
        <type>half</type>
      </note>
      <note>
        <pitch>
          <step>E</step>
          <octave>5</octave>
        </pitch>
        <duration>2</duration>
        <type>half</type>
        <tie type="start"/>
        <notations>
          <tied type="start"/>
        </notations>
      </note>
    </measure>
    <measure number="26">
      <attributes>
      </attributes>
      <note>
        <pitch>
          <step>E</step>
          <octave>5</octave>
        </pitch>
        <duration>2</duration>
        <type>half</type>
        <tie type="stop"/>
        <notations>
          <tied type="stop"/>
        </notations>
      </note>
      <note>
        <pitch>
          <step>B</step>
          <octave>4</octave>
        </pitch>
        <duration>1</duration>
        <type>quarter</type>
      </note>
      <note>
        <pitch>
          <step>B</step>
          <octave>4</octave>
        </pitch>
        <duration>1</duration>
        <type>quarter</type>
      </note>
    </measure>
    <measure number="27">
      <attributes>
      </attributes>
      <note>
        <pitch>
          <step>C</step>
          <octave>5</octave>
        </pitch>
        <duration>3</duration>
        <type>half</type>
        <dot/>
      </note>
      <note>
        <pitch>
          <step>C</step>
          <octave>5</octave>
        </pitch>
        <duration>1</duration>
        <type>quarter</type>
      </note>
    </measure>
    <measure number="28">
      <attributes>
      </attributes>
      <note>
        <pitch>
          <step>E</step>
          <octave>5</octave>
        </pitch>
        <duration>1</duration>
        <type>quarter</type>
      </note>
      <note>
        <pitch>
          <step>D</step>
          <octave>5</octave>
        </pitch>
        <duration>3</duration>
        <type>half</type>
        <dot/>
        <tie type="start"/>
        <notations>
          <tied type="start"/>
        </notations>
      </note>
    </measure>
    <measure number="29">
      <attributes>
      </attributes>
      <note>
        <pitch>
          <step>D</step>
          <octave>5</octave>
        </pitch>
        <duration>1</duration>
        <type>quarter</type>
        <tie type="stop"/>
        <notations>
          <tied type="stop"/>
        </notations>
      </note>
      <barline location="right">
        <bar-style>light-heavy</bar-style>
        <repeat direction="backward" winged="none"/>
      </barline>
      <note>
        <pitch>
          <step>E</step>
          <octave>5</octave>
        </pitch>
        <duration>3</duration>
        <type>half</type>
        <dot/>
        <tie type="start"/>
        <notations>
          <tied type="start"/>
        </notations>
      </note>
    </measure>
    <measure number="30">
      <attributes>
      </attributes>
      <note>
        <pitch>
          <step>E</step>
          <octave>5</octave>
        </pitch>
        <duration>1</duration>
        <type>quarter</type>
        <tie type="stop"/>
        <notations>
          <tied type="stop"/>
        </notations>
      </note>
      <note>
        <pitch>
          <step>F</step>
          <octave>4</octave>
        </pitch>
        <duration>0.5</duration>
        <type>eighth</type>
      </note>
      <note>
        <pitch>
          <step>F</step>
          <octave>4</octave>
        </pitch>
        <duration>0.5</duration>
        <type>eighth</type>
      </note>
      <note>
        <pitch>
          <step>B</step>
          <octave>4</octave>
        </pitch>
        <duration>2</duration>
        <type>half</type>
        <tie type="start"/>
        <notations>
          <tied type="start"/>
        </notations>
      </note>
    </measure>
    <measure number="31">
      <attributes>
      </attributes>
      <note>
        <pitch>
          <step>B</step>
          <octave>4</octave>
        </pitch>
        <duration>2</duration>
        <type>half</type>
        <tie type="stop"/>
        <notations>
          <tied type="stop"/>
        </notations>
      </note>
      <note>
        <pitch>
          <step>F</step>
          <octave>4</octave>
        </pitch>
        <duration>0.5</duration>
        <type>eighth</type>
      </note>
      <note>
        <pitch>
          <step>F</step>
          <octave>4</octave>
        </pitch>
        <duration>0.5</duration>
        <type>eighth</type>
      </note>
      <note>
        <pitch>
          <step>F</step>
          <octave>4</octave>
        </pitch>
        <duration>0.5</duration>
        <type>eighth</type>
      </note>
      <note>
        <pitch>
          <step>F</step>
          <octave>4</octave>
        </pitch>
        <duration>0.5</duration>
        <type>eighth</type>
      </note>
    </measure>
    <measure number="32">
      <attributes>
      </attributes>
      <note>
        <rest/>
        <duration>1</duration>
        <type>quarter</type>
      </note>
      <note>
        <pitch>
          <step>F</step>
          <octave>4</octave>
        </pitch>
        <duration>1</duration>
        <type>quarter</type>
      </note>
      <note>
        <pitch>
          <step>F</step>
          <octave>4</octave>
        </pitch>
        <duration>1</duration>
        <type>quarter</type>
      </note>
      <note>
        <pitch>
          <step>B</step>
          <octave>4</octave>
        </pitch>
        <duration>1</duration>
        <type>quarter</type>
      </note>
    </measure>
    <measure number="33">
      <attributes>
      </attributes>
      <note>
        <pitch>
          <step>B</step>
          <octave>4</octave>
        </pitch>
        <duration>1</duration>
        <type>quarter</type>
      </note>
      <note>
        <pitch>
          <step>C</step>
          <octave>5</octave>
        </pitch>
        <duration>1.5</duration>
        <type>quarter</type>
        <dot/>
      </note>
      <note>
        <pitch>
          <step>B</step>
          <octave>4</octave>
        </pitch>
        <duration>0.5</duration>
        <type>eighth</type>
      </note>
      <note>
        <pitch>
          <step>B</step>
          <octave>4</octave>
        </pitch>
        <duration>0.5</duration>
        <type>eighth</type>
      </note>
      <note>
        <pitch>
          <step>A</step>
          <octave>4</octave>
        </pitch>
        <duration>0.5</duration>
        <type>eighth</type>
        <tie type="start"/>
        <notations>
          <tied type="start"/>
        </notations>
      </note>
    </measure>
    <measure number="34">
      <attributes>
      </attributes>
      <note>
        <pitch>
          <step>A</step>
          <octave>4</octave>
        </pitch>
        <duration>1.5</duration>
        <type>quarter</type>
        <dot/>
        <tie type="stop"/>
        <notations>
          <tied type="stop"/>
        </notations>
      </note>
      <note>
        <pitch>
          <step>G</step>
          <octave>4</octave>
        </pitch>
        <duration>1</duration>
        <type>quarter</type>
      </note>
      <note>
        <pitch>
          <step>G</step>
          <octave>4</octave>
        </pitch>
        <duration>0.25</duration>
        <type>16th</type>
      </note>
      <note>
        <pitch>
          <step>G</step>
          <octave>4</octave>
        </pitch>
        <duration>0.25</duration>
        <type>16th</type>
      </note>
      <note>
        <pitch>
          <step>F</step>
          <octave>4</octave>
        </pitch>
        <duration>0.5</duration>
        <type>eighth</type>
      </note>
      <note>
        <pitch>
          <step>F</step>
          <octave>4</octave>
        </pitch>
        <duration>0.5</duration>
        <type>eighth</type>
      </note>
    </measure>
    <measure number="35">
      <attributes>
      </attributes>
      <note>
        <pitch>
          <step>F</step>
          <octave>4</octave>
        </pitch>
        <duration>0.5</duration>
        <type>eighth</type>
      </note>
      <note>
        <pitch>
          <step>F</step>
          <octave>4</octave>
        </pitch>
        <duration>0.5</duration>
        <type>eighth</type>
      </note>
      <note>
        <pitch>
          <step>C</step>
          <octave>5</octave>
        </pitch>
        <duration>1</duration>
        <type>quarter</type>
      </note>
      <note>
        <pitch>
          <step>C</step>
          <octave>5</octave>
        </pitch>
        <duration>1</duration>
        <type>quarter</type>
      </note>
      <note>
        <pitch>
          <step>B</step>
          <octave>4</octave>
        </pitch>
        <duration>0.25</duration>
        <type>16th</type>
      </note>
      <note>
        <pitch>
          <step>B</step>
          <octave>4</octave>
        </pitch>
        <duration>0.25</duration>
        <type>16th</type>
      </note>
      <note>
        <pitch>
          <step>A</step>
          <octave>4</octave>
        </pitch>
        <duration>0.5</duration>
        <type>eighth</type>
        <tie type="start"/>
        <notations>
          <tied type="start"/>
        </notations>
      </note>
    </measure>
    <measure number="36">
      <attributes>
      </attributes>
      <note>
        <pitch>
          <step>A</step>
          <octave>4</octave>
        </pitch>
        <duration>0.5</duration>
        <type>eighth</type>
        <tie type="stop"/>
        <notations>
          <tied type="stop"/>
        </notations>
      </note>
      <note>
        <pitch>
          <step>F</step>
          <octave>5</octave>
        </pitch>
        <duration>1</duration>
        <type>quarter</type>
      </note>
      <note>
        <pitch>
          <step>E</step>
          <octave>5</octave>
        </pitch>
        <duration>0.5</duration>
        <type>eighth</type>
      </note>
      <note>
        <pitch>
          <step>B</step>
          <octave>5</octave>
        </pitch>
        <duration>0.25</duration>
        <type>16th</type>
      </note>
      <note>
        <pitch>
          <step>B</step>
          <octave>5</octave>
        </pitch>
        <duration>0.25</duration>
        <type>16th</type>
      </note>
      <note>
        <pitch>
          <step>A</step>
          <octave>5</octave>
        </pitch>
        <duration>1</duration>
        <type>quarter</type>
      </note>
      <note>
        <pitch>
          <step>A</step>
          <octave>5</octave>
        </pitch>
        <duration>0.5</duration>
        <type>eighth</type>
        <tie type="start"/>
        <notations>
          <tied type="start"/>
        </notations>
      </note>
    </measure>
    <measure number="37">
      <attributes>
      </attributes>
      <note>
        <pitch>
          <step>A</step>
          <octave>5</octave>
        </pitch>
        <duration>0.5</duration>
        <type>eighth</type>
        <tie type="stop"/>
        <notations>
          <tied type="stop"/>
        </notations>
      </note>
      <note>
        <pitch>
          <step>A</step>
          <octave>5</octave>
        </pitch>
        <duration>0.5</duration>
        <type>eighth</type>
      </note>
      <note>
        <pitch>
          <step>A</step>
          <octave>5</octave>
        </pitch>
        <duration>0.5</duration>
        <type>eighth</type>
      </note>
      <note>
        <pitch>
          <step>A</step>
          <octave>5</octave>
        </pitch>
        <duration>0.5</duration>
        <type>eighth</type>
      </note>
      <note>
        <pitch>
          <step>A</step>
          <octave>5</octave>
        </pitch>
        <duration>0.5</duration>
        <type>eighth</type>
      </note>
      <note>
        <pitch>
          <step>B</step>
          <octave>5</octave>
        </pitch>
        <duration>1.5</duration>
        <type>quarter</type>
        <dot/>
      </note>
    </measure>
    <measure number="38">
      <attributes>
      </attributes>
      <note>
        <pitch>
          <step>A</step>
          <octave>5</octave>
        </pitch>
        <duration>1.5</duration>
        <type>quarter</type>
        <dot/>
      </note>
      <note>
        <pitch>
          <step>A</step>
          <octave>5</octave>
        </pitch>
        <duration>0.5</duration>
        <type>eighth</type>
      </note>
      <note>
        <pitch>
          <step>G</step>
          <octave>5</octave>
        </pitch>
        <duration>1</duration>
        <type>quarter</type>
      </note>
      <note>
        <pitch>
          <step>E</step>
          <octave>5</octave>
        </pitch>
        <duration>0.5</duration>
        <type>eighth</type>
      </note>
      <note>
        <pitch>
          <step>E</step>
          <octave>5</octave>
        </pitch>
        <duration>0.5</duration>
        <type>eighth</type>
      </note>
    </measure>
    <measure number="39">
      <attributes>
      </attributes>
      <note>
        <pitch>
          <step>G</step>
          <octave>5</octave>
        </pitch>
        <duration>4</duration>
        <type>whole</type>
      </note>
    </measure>
    <measure number="40">
      <attributes>
      </attributes>
      <note>
        <pitch>
          <step>F</step>
          <octave>5</octave>
        </pitch>
        <duration>1</duration>
        <type>quarter</type>
      </note>
      <note>
        <pitch>
          <step>E</step>
          <octave>5</octave>
        </pitch>
        <duration>0.5</duration>
        <type>eighth</type>
      </note>
      <note>
        <pitch>
          <step>E</step>
          <octave>5</octave>
        </pitch>
        <duration>0.5</duration>
        <type>eighth</type>
      </note>
      <note>
        <pitch>
          <step>A</step>
          <octave>5</octave>
        </pitch>
        <duration>0.5</duration>
        <type>eighth</type>
      </note>
      <note>
        <pitch>
          <step>A</step>
          <octave>5</octave>
        </pitch>
        <duration>0.5</duration>
        <type>eighth</type>
      </note>
      <note>
        <pitch>
          <step>A</step>
          <octave>5</octave>
        </pitch>
        <duration>0.5</duration>
        <type>eighth</type>
      </note>
      <note>
        <pitch>
          <step>A</step>
          <octave>5</octave>
        </pitch>
        <duration>0.5</duration>
        <type>eighth</type>
      </note>
    </measure>
    <measure number="41">
      <attributes>
      </attributes>
      <note>
        <pitch>
          <step>D</step>
          <octave>6</octave>
        </pitch>
        <duration>1</duration>
        <type>quarter</type>
      </note>
      <note>
        <pitch>
          <step>A</step>
          <octave>6</octave>
        </pitch>
        <duration>0.25</duration>
        <type>16th</type>
      </note>
      <note>
        <pitch>
          <step>A</step>
          <octave>6</octave>
        </pitch>
        <duration>0.25</duration>
        <type>16th</type>
      </note>
      <note>
        <pitch>
          <step>G</step>
          <octave>6</octave>
        </pitch>
        <duration>1.5</duration>
        <type>quarter</type>
        <dot/>
      </note>
      <note>
        <pitch>
          <step>G</step>
          <octave>6</octave>
        </pitch>
        <duration>0.5</duration>
        <type>eighth</type>
      </note>
      <note>
        <rest/>
        <duration>0.5</duration>
        <type>eighth</type>
      </note>
    </measure>
    <measure number="42">
      <attributes>
      </attributes>
      <note>
        <rest/>
        <duration>0.5</duration>
        <type>eighth</type>
      </note>
      <note>
        <pitch>
          <step>D</step>
          <octave>6</octave>
        </pitch>
        <duration>1</duration>
        <type>quarter</type>
      </note>
      <note>
        <pitch>
          <step>G</step>
          <octave>6</octave>
        </pitch>
        <duration>0.25</duration>
        <type>16th</type>
      </note>
      <note>
        <pitch>
          <step>G</step>
          <octave>6</octave>
        </pitch>
        <duration>0.25</duration>
        <type>16th</type>
      </note>
      <note>
        <pitch>
          <step>A</step>
          <octave>6</octave>
        </pitch>
        <duration>0.5</duration>
        <type>eighth</type>
      </note>
      <note>
        <pitch>
          <step>E</step>
          <octave>6</octave>
        </pitch>
        <duration>0.25</duration>
        <type>16th</type>
      </note>
      <note>
        <pitch>
          <step>E</step>
          <octave>6</octave>
        </pitch>
        <duration>0.25</duration>
        <type>16th</type>
      </note>
      <note>
        <pitch>
          <step>G</step>
          <octave>6</octave>
        </pitch>
        <duration>1</duration>
        <type>quarter</type>
        <tie type="start"/>
        <notations>
          <tied type="start"/>
        </notations>
      </note>
    </measure>
    <measure number="43">
      <attributes>
      </attributes>
      <note>
        <pitch>
          <step>G</step>
          <octave>6</octave>
        </pitch>
        <duration>1</duration>
        <type>quarter</type>
        <tie type="stop"/>
        <notations>
          <tied type="stop"/>
        </notations>
      </note>
      <note>
        <pitch>
          <step>G</step>
          <octave>6</octave>
        </pitch>
        <duration>2</duration>
        <type>half</type>
      </note>
      <note>
        <pitch>
          <step>C</step>
          <octave>7</octave>
        </pitch>
        <duration>1</duration>
        <type>quarter</type>
      </note>
    </measure>
    <measure number="44">
      <attributes>
      </attributes>
      <note>
        <pitch>
          <step>C</step>
          <octave>7</octave>
        </pitch>
        <duration>1</duration>
        <type>quarter</type>
      </note>
      <note>
        <pitch>
          <step>B</step>
          <octave>6</octave>
        </pitch>
        <duration>1</duration>
        <type>quarter</type>
      </note>
      <note>
        <pitch>
          <step>B</step>
          <octave>6</octave>
        </pitch>
        <duration>1</duration>
        <type>quarter</type>
      </note>
      <note>
        <pitch>
          <step>G</step>
          <octave>6</octave>
        </pitch>
        <duration>0.25</duration>
        <type>16th</type>
      </note>
      <note>
        <pitch>
          <step>G</step>
          <octave>6</octave>
        </pitch>
        <duration>0.25</duration>
        <type>16th</type>
      </note>
      <note>
        <rest/>
        <duration>0.5</duration>
        <type>eighth</type>
      </note>
    </measure>
    <measure number="45">
      <attributes>
      </attributes>
      <note>
        <rest/>
        <duration>0.5</duration>
        <type>eighth</type>
      </note>
      <note>
        <rest/>
        <duration>1</duration>
        <type>quarter</type>
      </note>
      <note>
        <pitch>
          <step>D</step>
          <octave>6</octave>
        </pitch>
        <duration>2</duration>
        <type>half</type>
        <tie type="start"/>
        <notations>
          <tied type="start"/>
        </notations>
      </note>
      <note>
        <pitch>
          <step>D</step>
          <octave>6</octave>
        </pitch>
        <duration>0.5</duration>
        <type>eighth</type>
        <tie type="stop"/>
        <tie type="start"/>
        <notations>
          <tied type="stop"/>
          <tied type="start"/>
        </notations>
      </note>
    </measure>
    <measure number="46">
      <attributes>
      </attributes>
      <note>
        <pitch>
          <step>D</step>
          <octave>6</octave>
        </pitch>
        <duration>1.5</duration>
        <type>quarter</type>
        <dot/>
        <tie type="stop"/>
        <notations>
          <tied type="stop"/>
        </notations>
      </note>
      <note>
        <pitch>
          <step>F</step>
          <octave>6</octave>
        </pitch>
        <duration>1.5</duration>
        <type>quarter</type>
        <dot/>
      </note>
      <note>
        <pitch>
          <step>F</step>
          <octave>6</octave>
        </pitch>
        <duration>0.5</duration>
        <type>eighth</type>
      </note>
      <note>
        <pitch>
          <step>B</step>
          <octave>6</octave>
        </pitch>
        <duration>0.25</duration>
        <type>16th</type>
      </note>
      <note>
        <pitch>
          <step>B</step>
          <octave>6</octave>
        </pitch>
        <duration>0.25</duration>
        <type>16th</type>
      </note>
    </measure>
    <measure number="47">
      <attributes>
      </attributes>
      <note>
        <pitch>
          <step>F</step>
          <octave>6</octave>
        </pitch>
        <duration>0.5</duration>
        <type>eighth</type>
      </note>
      <note>
        <pitch>
          <step>B</step>
          <octave>6</octave>
        </pitch>
        <duration>1.5</duration>
        <type>quarter</type>
        <dot/>
      </note>
      <note>
        <pitch>
          <step>B</step>
          <octave>6</octave>
        </pitch>
        <duration>0.5</duration>
        <type>eighth</type>
      </note>
      <note>
        <pitch>
          <step>F</step>
          <octave>6</octave>
        </pitch>
        <duration>0.5</duration>
        <type>eighth</type>
      </note>
      <note>
        <pitch>
          <step>F</step>
          <octave>6</octave>
        </pitch>
        <duration>0.5</duration>
        <type>eighth</type>
      </note>
      <note>
        <pitch>
          <step>F</step>
          <octave>6</octave>
        </pitch>
        <duration>0.5</duration>
        <type>eighth</type>
      </note>
    </measure>
    <measure number="48">
      <attributes>
      </attributes>
      <note>
        <pitch>
          <step>F</step>
          <octave>6</octave>
        </pitch>
        <duration>0.5</duration>
        <type>eighth</type>
      </note>
      <note>
        <rest/>
        <duration>3</duration>
        <type>half</type>
        <dot/>
      </note>
      <note>
        <rest/>
        <duration>0.5</duration>
        <type>eighth</type>
      </note>
    </measure>
    <measure number="49">
      <attributes>
      </attributes>
      <note>
        <rest/>
        <duration>0.5</duration>
        <type>eighth</type>
      </note>
      <note>
        <rest/>
        <duration>1</duration>
        <type>quarter</type>
      </note>
      <note>
        <rest/>
        <duration>1</duration>
        <type>quarter</type>
      </note>
      <note>
        <pitch>
          <step>B</step>
          <octave>5</octave>
        </pitch>
        <duration>1.5</duration>
        <type>quarter</type>
        <dot/>
      </note>
    </measure>
    <measure number="50">
      <attributes>
      </attributes>
      <note>
        <pitch>
          <step>B</step>
          <octave>5</octave>
        </pitch>
        <duration>0.5</duration>
        <type>eighth</type>
      </note>
      <note>
        <rest/>
        <duration>2</duration>
        <type>half</type>
      </note>
      <note>
        <pitch>
          <step>B</step>
          <octave>4</octave>
        </pitch>
        <duration>0.5</duration>
        <type>eighth</type>
      </note>
      <note>
        <pitch>
          <step>B</step>
          <octave>4</octave>
        </pitch>
        <duration>0.5</duration>
        <type>eighth</type>
      </note>
      <note>
        <rest/>
        <duration>0.5</duration>
        <type>eighth</type>
      </note>
    </measure>
    <measure number="51">
      <attributes>
      </attributes>
      <note>
        <rest/>
        <duration>0.5</duration>
        <type>eighth</type>
      </note>
      <note>
        <pitch>
          <step>B</step>
          <octave>5</octave>
        </pitch>
        <duration>1</duration>
        <type>quarter</type>
      </note>
      <note>
        <pitch>
          <step>B</step>
          <octave>5</octave>
        </pitch>
        <duration>1</duration>
        <type>quarter</type>
      </note>
      <note>
        <rest/>
        <duration>1.5</duration>
        <type>quarter</type>
        <dot/>
      </note>
    </measure>
    <measure number="52">
      <attributes>
      </attributes>
      <note>
        <rest/>
        <duration>2</duration>
        <type>half</type>
      </note>
      <note>
        <rest/>
        <duration>0.5</duration>
        <type>eighth</type>
      </note>
      <note>
        <pitch>
          <step>A</step>
          <octave>5</octave>
        </pitch>
        <duration>1.5</duration>
        <type>quarter</type>
        <dot/>
        <tie type="start"/>
        <notations>
          <tied type="start"/>
        </notations>
      </note>
    </measure>
    <measure number="53">
      <attributes>
      </attributes>
      <note>
        <pitch>
          <step>A</step>
          <octave>5</octave>
        </pitch>
        <duration>0.5</duration>
        <type>eighth</type>
        <tie type="stop"/>
        <notations>
          <tied type="stop"/>
        </notations>
      </note>
      <note>
        <pitch>
          <step>D</step>
          <octave>5</octave>
        </pitch>
        <duration>0.25</duration>
        <type>16th</type>
      </note>
      <note>
        <pitch>
          <step>D</step>
          <octave>5</octave>
        </pitch>
        <duration>0.25</duration>
        <type>16th</type>
      </note>
      <note>
        <pitch>
          <step>D</step>
          <octave>6</octave>
        </pitch>
        <duration>0.5</duration>
        <type>eighth</type>
      </note>
      <note>
        <pitch>
          <step>D</step>
          <octave>6</octave>
        </pitch>
        <duration>0.5</duration>
        <type>eighth</type>
      </note>
      <note>
        <pitch>
          <step>F</step>
          <octave>6</octave>
        </pitch>
        <duration>0.5</duration>
        <type>eighth</type>
      </note>
      <note>
        <pitch>
          <step>F</step>
          <octave>6</octave>
        </pitch>
        <duration>0.5</duration>
        <type>eighth</type>
      </note>
      <note>
        <pitch>
          <step>F</step>
          <octave>6</octave>
        </pitch>
        <duration>0.5</duration>
        <type>eighth</type>
      </note>
      <note>
        <pitch>
          <step>F</step>
          <octave>6</octave>
        </pitch>
        <duration>0.5</duration>
        <type>eighth</type>
      </note>
    </measure>
    <measure number="54">
      <attributes>
      </attributes>
      <note>
        <rest/>
        <duration>1</duration>
        <type>quarter</type>
      </note>
      <note>
        <pitch>
          <step>A</step>
          <octave>6</octave>
        </pitch>
        <duration>1.5</duration>
        <type>quarter</type>
        <dot/>
      </note>
      <note>
        <pitch>
          <step>A</step>
          <octave>6</octave>
        </pitch>
        <duration>0.5</duration>
        <type>eighth</type>
      </note>
      <note>
        <pitch>
          <step>C</step>
          <octave>7</octave>
        </pitch>
        <duration>1</duration>
        <type>quarter</type>
        <tie type="start"/>
        <notations>
          <tied type="start"/>
        </notations>
      </note>
    </measure>
    <measure number="55">
      <attributes>
      </attributes>
      <note>
        <pitch>
          <step>C</step>
          <octave>7</octave>
        </pitch>
        <duration>0.5</duration>
        <type>eighth</type>
        <tie type="stop"/>
        <notations>
          <tied type="stop"/>
        </notations>
      </note>
      <note>
        <pitch>
          <step>G</step>
          <octave>6</octave>
        </pitch>
        <duration>0.5</duration>
        <type>eighth</type>
      </note>
      <note>
        <pitch>
          <step>G</step>
          <octave>6</octave>
        </pitch>
        <duration>0.5</duration>
        <type>eighth</type>
      </note>
      <note>
        <pitch>
          <step>G</step>
          <octave>6</octave>
        </pitch>
        <duration>0.5</duration>
        <type>eighth</type>
      </note>
      <note>
        <pitch>
          <step>G</step>
          <octave>6</octave>
        </pitch>
        <duration>0.5</duration>
        <type>eighth</type>
      </note>
      <note>
        <pitch>
          <step>A</step>
          <octave>6</octave>
        </pitch>
        <duration>1.5</duration>
        <type>quarter</type>
        <dot/>
        <tie type="start"/>
        <notations>
          <tied type="start"/>
        </notations>
      </note>
    </measure>
    <measure number="56">
      <attributes>
      </attributes>
      <note>
        <pitch>
          <step>A</step>
          <octave>6</octave>
        </pitch>
        <duration>1.5</duration>
        <type>quarter</type>
        <dot/>
        <tie type="stop"/>
        <notations>
          <tied type="stop"/>
        </notations>
      </note>
      <note>
        <pitch>
          <step>A</step>
          <octave>6</octave>
        </pitch>
        <duration>1</duration>
        <type>quarter</type>
      </note>
      <note>
        <pitch>
          <step>D</step>
          <octave>6</octave>
        </pitch>
        <duration>1</duration>
        <type>quarter</type>
      </note>
      <note>
        <pitch>
          <step>F</step>
          <octave>6</octave>
        </pitch>
        <duration>0.5</duration>
        <type>eighth</type>
      </note>
    </measure>
    <measure number="57">
      <attributes>
      </attributes>
      <note>
        <pitch>
          <step>F</step>
          <octave>6</octave>
        </pitch>
        <duration>0.5</duration>
        <type>eighth</type>
      </note>
      <note>
        <rest/>
        <duration>1</duration>
        <type>quarter</type>
      </note>
      <note>
        <pitch>
          <step>A</step>
          <octave>6</octave>
        </pitch>
        <duration>1</duration>
        <type>quarter</type>
      </note>
      <note>
        <pitch>
          <step>A</step>
          <octave>6</octave>
        </pitch>
        <duration>1</duration>
        <type>quarter</type>
      </note>
      <note>
        <rest/>
        <duration>0.5</duration>
        <type>eighth</type>
      </note>
    </measure>
    <measure number="58">
      <attributes>
      </attributes>
      <note>
        <rest/>
        <duration>1</duration>
        <type>quarter</type>
      </note>
      <note>
        <pitch>
          <step>C</step>
          <octave>7</octave>
        </pitch>
        <duration>1</duration>
        <type>quarter</type>
      </note>
      <note>
        <pitch>
          <step>C</step>
          <octave>7</octave>
        </pitch>
        <duration>1</duration>
        <type>quarter</type>
      </note>
      <note>
        <pitch>
          <step>E</step>
          <octave>7</octave>
        </pitch>
        <duration>1</duration>
        <type>quarter</type>
      </note>
    </measure>
    <measure number="59">
      <attributes>
      </attributes>
      <note>
        <pitch>
          <step>E</step>
          <octave>7</octave>
        </pitch>
        <duration>1</duration>
        <type>quarter</type>
      </note>
      <note>
        <rest/>
        <duration>1</duration>
        <type>quarter</type>
      </note>
      <note>
        <pitch>
          <step>C</step>
          <octave>7</octave>
        </pitch>
        <duration>2</duration>
        <type>half</type>
        <tie type="start"/>
        <notations>
          <tied type="start"/>
        </notations>
      </note>
    </measure>
    <measure number="60">
      <attributes>
      </attributes>
      <note>
        <pitch>
          <step>C</step>
          <octave>7</octave>
        </pitch>
        <duration>1</duration>
        <type>quarter</type>
        <tie type="stop"/>
        <notations>
          <tied type="stop"/>
        </notations>
      </note>
      <note>
        <pitch>
          <step>C</step>
          <octave>7</octave>
        </pitch>
        <duration>1</duration>
        <type>quarter</type>
      </note>
      <note>
        <pitch>
          <step>B</step>
          <octave>6</octave>
        </pitch>
        <duration>1</duration>
        <type>quarter</type>
      </note>
      <note>
        <pitch>
          <step>B</step>
          <octave>6</octave>
        </pitch>
        <duration>0.25</duration>
        <type>16th</type>
      </note>
      <note>
        <pitch>
          <step>B</step>
          <octave>6</octave>
        </pitch>
        <duration>0.25</duration>
        <type>16th</type>
      </note>
      <note>
        <pitch>
          <step>F</step>
          <octave>7</octave>
        </pitch>
        <duration>0.5</duration>
        <type>eighth</type>
      </note>
    </measure>
    <measure number="61">
      <attributes>
      </attributes>
      <note>
        <pitch>
          <step>F</step>
          <octave>7</octave>
        </pitch>
        <duration>0.5</duration>
        <type>eighth</type>
      </note>
      <note>
        <pitch>
          <step>F</step>
          <octave>7</octave>
        </pitch>
        <duration>0.5</duration>
        <type>eighth</type>
      </note>
      <note>
        <pitch>
          <step>F</step>
          <octave>7</octave>
        </pitch>
        <duration>0.5</duration>
        <type>eighth</type>
      </note>
      <note>
        <pitch>
          <step>E</step>
          <octave>7</octave>
        </pitch>
        <duration>1</duration>
        <type>quarter</type>
      </note>
      <note>
        <pitch>
          <step>E</step>
          <octave>7</octave>
        </pitch>
        <duration>1</duration>
        <type>quarter</type>
      </note>
      <note>
        <pitch>
          <step>D</step>
          <octave>7</octave>
        </pitch>
        <duration>0.5</duration>
        <type>eighth</type>
        <tie type="start"/>
        <notations>
          <tied type="start"/>
        </notations>
      </note>
    </measure>
    <measure number="62">
      <attributes>
      </attributes>
      <note>
        <pitch>
          <step>D</step>
          <octave>7</octave>
        </pitch>
        <duration>0.5</duration>
        <type>eighth</type>
        <tie type="stop"/>
        <notations>
          <tied type="stop"/>
        </notations>
      </note>
      <note>
        <rest/>
        <duration>1</duration>
        <type>quarter</type>
      </note>
      <note>
        <pitch>
          <step>D</step>
          <octave>7</octave>
        </pitch>
        <duration>1</duration>
        <type>quarter</type>
      </note>
      <note>
        <pitch>
          <step>D</step>
          <octave>7</octave>
        </pitch>
        <duration>1</duration>
        <type>quarter</type>
      </note>
      <note>
        <pitch>
          <step>G</step>
          <octave>7</octave>
        </pitch>
        <duration>0.5</duration>
        <type>eighth</type>
        <tie type="start"/>
        <notations>
          <tied type="start"/>
        </notations>
      </note>
    </measure>
    <measure number="63">
      <attributes>
      </attributes>
      <note>
        <pitch>
          <step>G</step>
          <octave>7</octave>
        </pitch>
        <duration>0.5</duration>
        <type>eighth</type>
        <tie type="stop"/>
        <notations>
          <tied type="stop"/>
        </notations>
      </note>
      <note>
        <pitch>
          <step>G</step>
          <octave>7</octave>
        </pitch>
        <duration>1</duration>
        <type>quarter</type>
      </note>
      <note>
        <pitch>
          <step>A</step>
          <octave>7</octave>
        </pitch>
        <duration>1.5</duration>
        <type>quarter</type>
        <dot/>
      </note>
      <note>
        <pitch>
          <step>G</step>
          <octave>7</octave>
        </pitch>
        <duration>0.5</duration>
        <type>eighth</type>
      </note>
      <note>
        <pitch>
          <step>G</step>
          <octave>7</octave>
        </pitch>
        <duration>0.5</duration>
        <type>eighth</type>
      </note>
    </measure>
    <measure number="64">
      <attributes>
      </attributes>
      <note>
        <pitch>
          <step>F</step>
          <octave>7</octave>
        </pitch>
        <duration>0.5</duration>
        <type>eighth</type>
      </note>
      <note>
        <pitch>
          <step>F</step>
          <octave>7</octave>
        </pitch>
        <duration>0.5</duration>
        <type>eighth</type>
      </note>
      <note>
        <pitch>
          <step>E</step>
          <octave>7</octave>
        </pitch>
        <duration>0.5</duration>
        <type>eighth</type>
      </note>
      <note>
        <pitch>
          <step>E</step>
          <octave>7</octave>
        </pitch>
        <duration>0.5</duration>
        <type>eighth</type>
      </note>
      <note>
        <rest/>
        <duration>1</duration>
        <type>quarter</type>
      </note>
      <note>
        <pitch>
          <step>C</step>
          <octave>7</octave>
        </pitch>
        <duration>0.25</duration>
        <type>16th</type>
      </note>
      <note>
        <pitch>
          <step>C</step>
          <octave>7</octave>
        </pitch>
        <duration>0.25</duration>
        <type>16th</type>
      </note>
      <note>
        <pitch>
          <step>B</step>
          <octave>6</octave>
        </pitch>
        <duration>0.5</duration>
        <type>eighth</type>
      </note>
    </measure>
    <measure number="65">
      <attributes>
      </attributes>
      <note>
        <pitch>
          <step>B</step>
          <octave>6</octave>
        </pitch>
        <duration>0.5</duration>
        <type>eighth</type>
      </note>
      <note>
        <pitch>
          <step>C</step>
          <octave>7</octave>
        </pitch>
        <duration>1</duration>
        <type>quarter</type>
      </note>
      <note>
        <pitch>
          <step>B</step>
          <octave>6</octave>
        </pitch>
        <duration>2</duration>
        <type>half</type>
        <tie type="start"/>
        <notations>
          <tied type="start"/>
        </notations>
      </note>
      <note>
        <pitch>
          <step>B</step>
          <octave>6</octave>
        </pitch>
        <duration>0.5</duration>
        <type>eighth</type>
        <tie type="stop"/>
        <tie type="start"/>
        <notations>
          <tied type="stop"/>
          <tied type="start"/>
        </notations>
      </note>
    </measure>
    <measure number="66">
      <attributes>
      </attributes>
      <note>
        <pitch>
          <step>B</step>
          <octave>6</octave>
        </pitch>
        <duration>1.5</duration>
        <type>quarter</type>
        <dot/>
        <tie type="stop"/>
        <notations>
          <tied type="stop"/>
        </notations>
      </note>
      <note>
        <pitch>
          <step>F</step>
          <octave>6</octave>
        </pitch>
        <duration>0.25</duration>
        <type>16th</type>
      </note>
      <note>
        <pitch>
          <step>F</step>
          <octave>6</octave>
        </pitch>
        <duration>0.25</duration>
        <type>16th</type>
      </note>
      <note>
        <pitch>
          <step>A</step>
          <octave>6</octave>
        </pitch>
        <duration>2</duration>
        <type>half</type>
      </note>
    </measure>
    <measure number="67">
      <attributes>
      </attributes>
      <note>
        <pitch>
          <step>A</step>
          <octave>6</octave>
        </pitch>
        <duration>2</duration>
        <type>half</type>
      </note>
      <note>
        <pitch>
          <step>E</step>
          <octave>6</octave>
        </pitch>
        <duration>1</duration>
        <type>quarter</type>
      </note>
      <note>
        <pitch>
          <step>E</step>
          <octave>6</octave>
        </pitch>
        <duration>1</duration>
        <type>quarter</type>
      </note>
    </measure>
    <measure number="68">
      <attributes>
      </attributes>
      <note>
        <pitch>
          <step>D</step>
          <octave>6</octave>
        </pitch>
        <duration>0.5</duration>
        <type>eighth</type>
      </note>
      <note>
        <pitch>
          <step>D</step>
          <octave>6</octave>
        </pitch>
        <duration>0.5</duration>
        <type>eighth</type>
      </note>
      <note>
        <pitch>
          <step>D</step>
          <octave>6</octave>
        </pitch>
        <duration>0.5</duration>
        <type>eighth</type>
      </note>
      <note>
        <pitch>
          <step>D</step>
          <octave>6</octave>
        </pitch>
        <duration>0.5</duration>
        <type>eighth</type>
      </note>
      <note>
        <pitch>
          <step>G</step>
          <octave>6</octave>
        </pitch>
        <duration>1</duration>
        <type>quarter</type>
      </note>
      <note>
        <pitch>
          <step>G</step>
          <octave>6</octave>
        </pitch>
        <duration>1</duration>
        <type>quarter</type>
      </note>
    </measure>
    <measure number="69">
      <attributes>
      </attributes>
      <note>
        <pitch>
          <step>F</step>
          <octave>6</octave>
        </pitch>
        <duration>0.5</duration>
        <type>eighth</type>
      </note>
      <note>
        <pitch>
          <step>F</step>
          <octave>6</octave>
        </pitch>
        <duration>0.5</duration>
        <type>eighth</type>
      </note>
      <note>
        <pitch>
          <step>F</step>
          <octave>6</octave>
        </pitch>
        <duration>0.5</duration>
        <type>eighth</type>
      </note>
      <note>
        <pitch>
          <step>F</step>
          <octave>6</octave>
        </pitch>
        <duration>0.5</duration>
        <type>eighth</type>
      </note>
      <note>
        <pitch>
          <step>E</step>
          <octave>6</octave>
        </pitch>
        <duration>1.5</duration>
        <type>quarter</type>
        <dot/>
      </note>
      <note>
        <pitch>
          <step>E</step>
          <octave>6</octave>
        </pitch>
        <duration>0.5</duration>
        <type>eighth</type>
      </note>
    </measure>
    <measure number="70">
      <attributes>
      </attributes>
      <note>
        <pitch>
          <step>F</step>
          <octave>6</octave>
        </pitch>
        <duration>1</duration>
        <type>quarter</type>
      </note>
      <note>
        <pitch>
          <step>A</step>
          <octave>6</octave>
        </pitch>
        <duration>0.5</duration>
        <type>eighth</type>
      </note>
      <note>
        <pitch>
          <step>D</step>
          <octave>6</octave>
        </pitch>
        <duration>1</duration>
        <type>quarter</type>
      </note>
      <note>
        <rest/>
        <duration>1</duration>
        <type>quarter</type>
      </note>
      <note>
        <pitch>
          <step>B</step>
          <octave>5</octave>
        </pitch>
        <duration>0.5</duration>
        <type>eighth</type>
        <tie type="start"/>
        <notations>
          <tied type="start"/>
        </notations>
      </note>
    </measure>
    <measure number="71">
      <attributes>
      </attributes>
      <note>
        <pitch>
          <step>B</step>
          <octave>5</octave>
        </pitch>
        <duration>0.5</duration>
        <type>eighth</type>
        <tie type="stop"/>
        <notations>
          <tied type="stop"/>
        </notations>
      </note>
      <note>
        <pitch>
          <step>C</step>
          <octave>6</octave>
        </pitch>
        <duration>0.5</duration>
        <type>eighth</type>
      </note>
      <note>
        <pitch>
          <step>C</step>
          <octave>6</octave>
        </pitch>
        <duration>0.5</duration>
        <type>eighth</type>
      </note>
      <note>
        <pitch>
          <step>D</step>
          <octave>6</octave>
        </pitch>
        <duration>1</duration>
        <type>quarter</type>
      </note>
      <note>
        <pitch>
          <step>C</step>
          <octave>6</octave>
        </pitch>
        <duration>0.25</duration>
        <type>16th</type>
      </note>
      <note>
        <pitch>
          <step>C</step>
          <octave>6</octave>
        </pitch>
        <duration>0.25</duration>
        <type>16th</type>
      </note>
      <note>
        <pitch>
          <step>F</step>
          <octave>5</octave>
        </pitch>
        <duration>0.25</duration>
        <type>16th</type>
      </note>
      <note>
        <pitch>
          <step>F</step>
          <octave>5</octave>
        </pitch>
        <duration>0.25</duration>
        <type>16th</type>
      </note>
      <note>
        <pitch>
          <step>A</step>
          <octave>5</octave>
        </pitch>
        <duration>0.5</duration>
        <type>eighth</type>
      </note>
    </measure>
    <measure number="72">
      <attributes>
      </attributes>
      <note>
        <pitch>
          <step>A</step>
          <octave>5</octave>
        </pitch>
        <duration>0.5</duration>
        <type>eighth</type>
      </note>
      <note>
        <pitch>
          <step>D</step>
          <octave>6</octave>
        </pitch>
        <duration>1</duration>
        <type>quarter</type>
      </note>
      <note>
        <pitch>
          <step>D</step>
          <octave>6</octave>
        </pitch>
        <duration>1</duration>
        <type>quarter</type>
      </note>
      <note>
        <rest/>
        <duration>0.5</duration>
        <type>eighth</type>
      </note>
      <note>
        <rest/>
        <duration>1</duration>
        <type>quarter</type>
      </note>
    </measure>
    <measure number="73">
      <attributes>
      </attributes>
      <note>
        <pitch>
          <step>F</step>
          <octave>6</octave>
        </pitch>
        <duration>1</duration>
        <type>quarter</type>
      </note>
      <note>
        <pitch>
          <step>F</step>
          <octave>6</octave>
        </pitch>
        <duration>1</duration>
        <type>quarter</type>
      </note>
      <note>
        <rest/>
        <duration>1</duration>
        <type>quarter</type>
      </note>
      <note>
        <pitch>
          <step>F</step>
          <octave>6</octave>
        </pitch>
        <duration>0.5</duration>
        <type>eighth</type>
      </note>
      <note>
        <pitch>
          <step>F</step>
          <octave>6</octave>
        </pitch>
        <duration>0.5</duration>
        <type>eighth</type>
      </note>
    </measure>
    <measure number="74">
      <attributes>
      </attributes>
      <note>
        <pitch>
          <step>B</step>
          <octave>6</octave>
        </pitch>
        <duration>0.5</duration>
        <type>eighth</type>
      </note>
      <note>
        <pitch>
          <step>F</step>
          <octave>7</octave>
        </pitch>
        <duration>0.5</duration>
        <type>eighth</type>
      </note>
      <note>
        <pitch>
          <step>F</step>
          <octave>7</octave>
        </pitch>
        <duration>0.5</duration>
        <type>eighth</type>
      </note>
      <note>
        <pitch>
          <step>E</step>
          <octave>7</octave>
        </pitch>
        <duration>1</duration>
        <type>quarter</type>
      </note>
      <note>
        <pitch>
          <step>E</step>
          <octave>7</octave>
        </pitch>
        <duration>1</duration>
        <type>quarter</type>
      </note>
      <note>
        <pitch>
          <step>D</step>
          <octave>7</octave>
        </pitch>
        <duration>0.5</duration>
        <type>eighth</type>
        <tie type="start"/>
        <notations>
          <tied type="start"/>
        </notations>
      </note>
    </measure>
    <measure number="75">
      <attributes>
      </attributes>
      <note>
        <pitch>
          <step>D</step>
          <octave>7</octave>
        </pitch>
        <duration>0.5</duration>
        <type>eighth</type>
        <tie type="stop"/>
        <notations>
          <tied type="stop"/>
        </notations>
      </note>
      <note>
        <pitch>
          <step>D</step>
          <octave>7</octave>
        </pitch>
        <duration>1</duration>
        <type>quarter</type>
      </note>
      <note>
        <pitch>
          <step>C</step>
          <octave>7</octave>
        </pitch>
        <duration>0.5</duration>
        <type>eighth</type>
      </note>
      <note>
        <pitch>
          <step>C</step>
          <octave>7</octave>
        </pitch>
        <duration>0.5</duration>
        <type>eighth</type>
      </note>
      <note>
        <pitch>
          <step>C</step>
          <octave>7</octave>
        </pitch>
        <duration>0.5</duration>
        <type>eighth</type>
      </note>
      <note>
        <pitch>
          <step>C</step>
          <octave>7</octave>
        </pitch>
        <duration>0.5</duration>
        <type>eighth</type>
      </note>
      <note>
        <pitch>
          <step>F</step>
          <octave>6</octave>
        </pitch>
        <duration>0.5</duration>
        <type>eighth</type>
        <tie type="start"/>
        <notations>
          <tied type="start"/>
        </notations>
      </note>
    </measure>
    <measure number="76">
      <attributes>
      </attributes>
      <note>
        <pitch>
          <step>F</step>
          <octave>6</octave>
        </pitch>
        <duration>0.5</duration>
        <type>eighth</type>
        <tie type="stop"/>
        <notations>
          <tied type="stop"/>
        </notations>
      </note>
      <note>
        <pitch>
          <step>F</step>
          <octave>6</octave>
        </pitch>
        <duration>0.5</duration>
        <type>eighth</type>
      </note>
      <note>
        <pitch>
          <step>F</step>
          <octave>6</octave>
        </pitch>
        <duration>0.5</duration>
        <type>eighth</type>
      </note>
      <note>
        <pitch>
          <step>B</step>
          <octave>6</octave>
        </pitch>
        <duration>1</duration>
        <type>quarter</type>
      </note>
      <note>
        <pitch>
          <step>B</step>
          <octave>6</octave>
        </pitch>
        <duration>1</duration>
        <type>quarter</type>
      </note>
    </measure>
  </part>
</score-partwise>
